<svg xmlns="http://www.w3.org/2000/svg" xmlns:xlink="http://www.w3.org/1999/xlink" width="512" zoomAndPan="magnify" viewBox="0 0 384 383.999986" height="512" preserveAspectRatio="xMidYMid meet" version="1.0"><defs><clipPath id="61a839244e"><path d="M 37.167969 44.007812 L 344.667969 44.007812 L 344.667969 337.257812 L 37.167969 337.257812 Z M 37.167969 44.007812 " clip-rule="nonzero"/></clipPath><clipPath id="cafbf1cec0"><path d="M 15 0.277344 L 307.667969 0.277344 L 307.667969 293 L 15 293 Z M 15 0.277344 " clip-rule="nonzero"/></clipPath><clipPath id="8011c26eda"><path d="M 0.167969 86 L 52 86 L 52 135 L 0.167969 135 Z M 0.167969 86 " clip-rule="nonzero"/></clipPath><clipPath id="1edf04ef97"><rect x="0" width="308" y="0" height="294"/></clipPath><clipPath id="4980dd0d05"><path d="M 112 129.332031 L 269.375 129.332031 L 269.375 252.332031 L 112 252.332031 Z M 112 129.332031 " clip-rule="nonzero"/></clipPath></defs><g clip-path="url(#61a839244e)"><g transform="matrix(1, 0, 0, 1, 37, 44)"><g clip-path="url(#1edf04ef97)"><g clip-path="url(#cafbf1cec0)"><path fill="#152703" d="M 19.875 162.894531 L 21.183594 172.332031 C 21.695312 176.121094 22.453125 179.863281 23.457031 183.554688 C 24.039062 185.730469 24.394531 188.160156 25.273438 190.660156 L 27.902344 198.476562 C 32.757812 211.71875 39.386719 224.007812 47.796875 235.332031 C 53.269531 242.644531 59.394531 249.367188 66.164062 255.496094 C 72.9375 261.628906 80.230469 267.054688 88.050781 271.777344 C 97.328125 277.402344 107.117188 281.929688 117.414062 285.355469 C 127.710938 288.785156 138.261719 291.027344 149.0625 292.082031 C 151.902344 292.238281 154.84375 292.410156 157.757812 292.566406 C 159.179688 292.566406 160.601562 292.792969 162.234375 292.75 L 166.609375 292.566406 C 169.523438 292.4375 172.464844 292.324219 175.417969 292.195312 C 178.375 292.070312 181.402344 291.386719 184.429688 290.988281 C 190.539062 290.363281 196.40625 288.601562 202.445312 287.152344 C 203.964844 286.792969 205.445312 286.316406 206.890625 285.730469 L 211.296875 284.152344 L 215.730469 282.578125 L 217.945312 281.765625 L 220.09375 280.757812 C 222.933594 279.414062 225.777344 278.058594 228.617188 276.695312 C 230.097656 276.046875 231.515625 275.289062 232.878906 274.421875 L 237.015625 271.964844 C 242.699219 268.894531 247.699219 264.773438 252.984375 260.964844 C 255.515625 258.933594 257.875 256.703125 260.347656 254.5 L 264.011719 251.21875 L 267.292969 247.59375 C 269.511719 245.152344 271.839844 242.792969 273.957031 240.25 L 280.082031 232.320312 C 287.65625 221.421875 294.445312 209.585938 298.738281 196.796875 L 300.515625 192.050781 L 301.835938 187.152344 C 302.675781 183.882812 303.640625 180.613281 304.378906 177.316406 C 305.34375 170.609375 306.878906 163.949219 306.964844 157.140625 L 307.261719 152.039062 L 307.40625 149.496094 L 307.40625 146.8125 L 306.980469 136.867188 C 306.804688 133.464844 306.425781 130.089844 305.84375 126.734375 L 305.03125 121.691406 L 304.648438 119.132812 L 304.039062 116.675781 L 301.582031 106.726562 C 300.757812 103.445312 299.390625 100.320312 298.328125 97.125 L 296.621094 92.347656 C 296.039062 90.773438 295.199219 89.28125 294.53125 87.746094 L 290.269531 78.625 C 286.746094 72.941406 283.675781 66.914062 279.5 61.699219 L 276.457031 57.75 C 275.519531 56.378906 274.488281 55.078125 273.359375 53.855469 L 266.738281 46.382812 C 257.449219 37.078125 247.472656 28.453125 236.277344 22.085938 L 232.183594 19.558594 C 230.761719 18.746094 229.34375 18.136719 227.921875 17.382812 L 219.394531 13.191406 C 216.484375 11.96875 213.5 10.933594 210.585938 9.808594 L 206.195312 8.203125 C 204.773438 7.636719 203.199219 7.351562 201.71875 6.910156 C 198.722656 6.117188 195.738281 5.332031 192.769531 4.539062 C 189.800781 3.742188 186.757812 3.488281 183.773438 2.933594 L 179.296875 2.222656 C 177.820312 1.929688 176.328125 1.75 174.824219 1.683594 C 171.839844 1.511719 168.871094 1.328125 165.914062 1.15625 C 164.351562 1.070312 162.800781 1 161.269531 0.914062 C 159.734375 0.828125 158.425781 1.015625 157.003906 1.070312 C 154.164062 1.167969 151.375 1.261719 148.636719 1.355469 C 145.738281 1.714844 142.851562 2.070312 139.984375 2.421875 C 138.5625 2.589844 137.140625 2.777344 135.71875 2.945312 C 134.300781 3.117188 132.976562 3.53125 131.613281 3.8125 L 123.5 5.546875 C 120.859375 6.285156 118.273438 7.125 115.6875 7.90625 C 110.628906 9.472656 105.675781 11.316406 100.824219 13.433594 C 92.164062 17.257812 83.949219 21.871094 76.171875 27.265625 C 68.398438 32.664062 61.203125 38.746094 54.585938 45.515625 C 44.324219 56.023438 35.742188 67.761719 28.839844 80.726562 C 24.554688 89.132812 21.035156 97.847656 18.285156 106.871094 L 15.65625 116.519531 L 29.296875 119.515625 L 31.539062 110.734375 C 33.90625 102.496094 36.96875 94.523438 40.734375 86.820312 C 46.851562 74.894531 54.511719 64.058594 63.710938 54.3125 C 69.679688 48 76.191406 42.308594 83.242188 37.242188 C 90.296875 32.171875 97.769531 27.816406 105.652344 24.175781 C 110.085938 22.15625 114.613281 20.382812 119.238281 18.859375 C 121.609375 18.121094 123.984375 17.296875 126.34375 16.574219 C 128.699219 15.847656 131.300781 15.4375 133.800781 14.855469 C 135.066406 14.570312 136.316406 14.285156 137.582031 13.988281 C 138.847656 13.6875 140.167969 13.703125 141.433594 13.460938 C 143.976562 13.09375 146.546875 12.722656 149.117188 12.351562 C 151.886719 12.210938 154.675781 12.070312 157.488281 11.925781 C 158.910156 11.925781 160.328125 11.769531 161.75 11.699219 L 165.617188 11.882812 C 168.363281 11.996094 171.125 12.113281 173.898438 12.226562 C 175.292969 12.261719 176.675781 12.402344 178.046875 12.652344 L 182.226562 13.261719 C 185.066406 13.730469 187.910156 13.917969 190.609375 14.683594 C 193.308594 15.449219 196.164062 16.105469 198.964844 16.757812 C 200.382812 17.140625 201.804688 17.367188 203.226562 17.878906 L 207.332031 19.300781 C 210.074219 20.308594 212.875 21.207031 215.601562 22.300781 C 218.332031 23.394531 220.945312 24.828125 223.644531 26.09375 C 224.980469 26.746094 226.371094 27.316406 227.664062 28.054688 L 231.53125 30.355469 C 242.101562 36.125 251.566406 44.066406 260.460938 52.664062 L 266.796875 59.511719 C 267.871094 60.644531 268.863281 61.847656 269.765625 63.121094 L 272.609375 66.871094 C 276.65625 71.703125 279.597656 77.316406 283.039062 82.644531 L 287.300781 91.167969 C 287.980469 92.589844 288.722656 94.011719 289.347656 95.433594 L 291.039062 99.90625 C 292.089844 102.921875 293.4375 105.847656 294.261719 108.945312 L 296.734375 118.25 L 297.359375 120.582031 L 297.742188 122.925781 L 298.511719 127.628906 C 299.136719 130.792969 299.554688 133.988281 299.761719 137.207031 L 300.34375 147.152344 L 300.34375 148.703125 C 300.34375 148.84375 300.34375 148.558594 300.34375 148.828125 L 300.34375 149.425781 L 300.246094 151.855469 L 300.046875 156.699219 C 300.046875 163.207031 298.695312 169.488281 297.886719 175.980469 C 297.246094 179.152344 296.367188 182.261719 295.613281 185.417969 L 294.433594 190.121094 L 292.8125 194.679688 C 288.921875 207.027344 282.582031 218.410156 275.476562 229.007812 L 269.796875 236.738281 C 267.792969 239.210938 265.53125 241.511719 263.5 243.84375 L 260.316406 247.382812 L 256.835938 250.605469 C 254.492188 252.722656 252.261719 254.953125 249.847656 256.957031 C 244.800781 260.710938 240.011719 264.789062 234.585938 267.828125 L 230.636719 270.273438 C 229.347656 271.132812 228.003906 271.890625 226.601562 272.546875 L 218.332031 276.625 L 216.269531 277.632812 L 214.125 278.457031 L 209.863281 280.046875 L 205.597656 281.652344 C 204.21875 282.242188 202.796875 282.71875 201.335938 283.074219 C 195.511719 284.496094 189.785156 286.398438 183.960938 287.066406 C 181.117188 287.507812 178.203125 288.089844 175.292969 288.402344 C 172.378906 288.714844 169.394531 288.742188 166.480469 288.914062 L 162.121094 289.171875 C 160.839844 289.171875 159.277344 289.085938 157.859375 289.054688 C 155.015625 288.941406 152.175781 288.84375 149.332031 288.730469 C 138.714844 287.871094 128.328125 285.847656 118.164062 282.660156 C 108.003906 279.476562 98.320312 275.203125 89.113281 269.847656 C 81.316406 265.304688 74.023438 260.058594 67.234375 254.109375 C 60.445312 248.160156 54.289062 241.617188 48.761719 234.480469 C 40.25 223.363281 33.484375 211.265625 28.472656 198.191406 L 25.742188 190.445312 C 24.835938 188.03125 24.4375 185.628906 23.824219 183.46875 C 22.757812 179.800781 21.9375 176.078125 21.367188 172.300781 Z M 19.875 162.894531 " fill-opacity="1" fill-rule="nonzero"/></g><g clip-path="url(#8011c26eda)"><path fill="#152703" d="M 51.191406 94.152344 L 23.34375 113.902344 L 3.605469 86.054688 L 0.167969 106.246094 L 19.902344 134.09375 L 47.738281 114.359375 Z M 51.191406 94.152344 " fill-opacity="1" fill-rule="nonzero"/></g></g></g></g><g clip-path="url(#4980dd0d05)"><path fill="#152703" d="M 144.285156 219.953125 C 144.332031 219.304688 144.523438 219.320312 144.648438 218.859375 C 145.25 219.175781 145.582031 219.429688 145.992188 219.476562 L 145.992188 219.839844 L 144.285156 219.96875 Z M 215.128906 132.019531 C 214.371094 131.289062 213.261719 130.640625 212.109375 130.640625 C 211.699219 130.640625 211.871094 132.253906 211.871094 132.714844 C 211.253906 132.300781 208.949219 129.726562 206.875 129.425781 C 206.875 130.152344 206.957031 130.359375 207.003906 130.894531 C 205.722656 130.59375 206.257812 130.042969 203.953125 130.042969 L 203.714844 130.546875 C 203.523438 131.070312 203.253906 131.667969 203.207031 132.238281 C 202.78125 132.128906 202.6875 131.90625 202.386719 131.589844 C 202.101562 131.304688 201.929688 131.226562 201.628906 131.007812 C 201.214844 130.722656 200.394531 130.308594 199.667969 130.277344 C 199.636719 130.625 199.414062 132 199.304688 132.222656 C 198.640625 132.050781 197.546875 131.054688 195.984375 130.65625 C 194.433594 130.277344 195.035156 130.105469 195.035156 133.675781 C 194.496094 133.550781 194.117188 133.347656 193.582031 133.171875 C 192.0625 132.664062 190.480469 132.460938 188.679688 132.460938 C 188.140625 132.460938 187.96875 132.570312 188.394531 132.980469 C 188.949219 133.519531 189.453125 134.292969 189.53125 135.148438 C 188.996094 135.101562 188.015625 134.515625 187.558594 134.308594 C 185.785156 133.503906 183.605469 132.222656 181.597656 132.222656 C 181.707031 133.488281 182.085938 134.5625 182.085938 135.875 C 180.886719 135.589844 179.574219 134.957031 178.308594 134.894531 C 178.339844 135.242188 178.625 136.585938 178.464844 136.746094 C 178.324219 136.886719 178.085938 136.601562 177.851562 136.460938 C 176.710938 135.71875 175.429688 135.148438 173.800781 135.148438 L 173.800781 137.34375 C 171.875 136.066406 172.175781 135.765625 169.28125 135.765625 C 169.28125 137.3125 169.816406 137.726562 169.898438 138.6875 C 168.886719 138.609375 167.636719 137.710938 165.136719 137.710938 C 165.234375 138.074219 165.453125 138.324219 165.675781 138.640625 C 165.882812 138.941406 166.054688 139.164062 166.230469 139.417969 C 165.1875 139.417969 163.113281 138.941406 162.214844 139.054688 C 161.769531 139.101562 161.613281 139.164062 160.980469 139.164062 L 161.835938 141.488281 C 161.421875 141.378906 161.359375 141.15625 160.964844 140.902344 C 159.605469 140 158.878906 140.332031 157.566406 140.632812 C 157.566406 141.488281 157.753906 141.929688 158.085938 142.546875 L 158.230469 142.785156 C 158.703125 143.605469 157.328125 142.972656 156.222656 142.925781 C 155.921875 142.910156 155.558594 142.957031 155.257812 142.925781 C 154.878906 142.894531 154.894531 142.816406 154.386719 142.816406 L 154.53125 144.160156 C 154.640625 144.648438 154.230469 144.382812 154.023438 144.285156 C 152.792969 143.71875 150.847656 143.574219 149.753906 144.160156 C 149.804688 144.679688 149.992188 145.359375 150.167969 145.820312 C 150.277344 146.089844 150.371094 146.277344 150.46875 146.5 C 150.65625 146.925781 150.6875 146.738281 150.71875 147.210938 C 150.039062 147.210938 149.929688 147.101562 149.375 147.085938 C 148.839844 147.070312 148.617188 147.117188 148.09375 147.019531 C 147.367188 146.894531 146.246094 146.847656 145.457031 146.847656 C 145.628906 147.621094 146.230469 148 146.4375 148.792969 C 145.789062 148.792969 144.300781 148.300781 142.402344 148.300781 C 142.515625 148.761719 142.703125 148.996094 142.910156 149.375 C 142.988281 149.519531 142.957031 149.503906 143.035156 149.628906 L 143.382812 150.371094 C 142.402344 150.371094 141.675781 150.121094 140.746094 149.960938 C 139.78125 149.804688 138.957031 149.773438 137.882812 149.773438 C 138.105469 150.609375 139.210938 151.402344 139.351562 152.949219 C 137.644531 152.949219 136.492188 152.03125 135.449219 151.96875 C 135.765625 152.617188 135.859375 153.628906 136.046875 154.308594 C 136.429688 155.652344 133.914062 153.519531 132.160156 153.425781 L 132.777344 155.003906 C 132.398438 154.910156 132.460938 154.894531 132.191406 154.734375 C 131.621094 154.421875 130.957031 154.292969 130.308594 154.183594 C 128.871094 153.945312 129.125 154.46875 129.234375 155.398438 C 129.265625 155.605469 129.25 155.890625 129.25 156.097656 C 128.347656 156.082031 127.75 155.527344 126.816406 155.480469 L 126.816406 157.550781 C 126.152344 157.867188 125.171875 157.722656 124.382812 157.675781 C 124.050781 157.660156 123.003906 157.265625 123.117188 157.835938 C 123.117188 157.835938 123.320312 158.355469 123.371094 158.453125 C 123.859375 159.875 124.015625 159.699219 122.878906 160.554688 C 122.46875 160.855469 122.390625 160.964844 122.042969 161.296875 C 121.710938 161.628906 121.613281 161.804688 121.3125 162.152344 C 120.980469 162.53125 120.777344 162.640625 120.730469 163.164062 C 121.078125 163.003906 121.457031 162.925781 121.820312 162.800781 C 122.941406 162.386719 124.160156 162.167969 125.25 161.835938 C 126.722656 161.375 128.414062 161.203125 129.960938 160.824219 C 130.292969 160.742188 130.847656 160.695312 131.210938 160.617188 L 134.910156 160.046875 C 137.882812 159.542969 141.042969 159.335938 144 159.003906 C 144.285156 158.972656 144.824219 158.925781 145.203125 158.863281 C 145.992188 158.753906 146.972656 158.71875 147.84375 158.578125 L 155.589844 157.789062 C 155.90625 157.757812 156.507812 157.597656 156.824219 157.566406 C 159.84375 157.25 162.703125 156.808594 165.644531 156.269531 C 168.773438 155.699219 171.890625 154.863281 174.894531 154.039062 L 181.753906 152.238281 C 184.03125 151.605469 186.402344 151.101562 188.742188 150.671875 L 193.707031 149.898438 C 194.164062 149.820312 194.59375 149.742188 195.019531 149.742188 C 195.699219 149.742188 195.871094 149.660156 196.363281 149.628906 C 198.71875 149.457031 201.453125 149.375 203.792969 149.644531 C 204.15625 149.691406 204.03125 149.742188 204.535156 149.757812 C 206.164062 149.820312 207.652344 150.105469 209.246094 150.40625 C 212.332031 151.003906 215.128906 152.347656 217.136719 154.71875 C 219.003906 156.933594 220.378906 159.511719 219.066406 162.4375 C 218.859375 162.878906 218.972656 162.769531 218.511719 162.972656 L 216.140625 164.015625 C 215.902344 164.128906 215.636719 164.222656 215.382812 164.363281 C 215.128906 164.507812 214.921875 164.617188 214.671875 164.757812 C 213.484375 165.34375 212.203125 166.070312 211.128906 166.832031 C 210.84375 167.035156 210.84375 167.082031 210.480469 167.289062 C 209.53125 167.8125 208.535156 167.8125 207.460938 167.8125 C 206.195312 167.8125 204.617188 167.019531 203.429688 167.683594 C 202.527344 168.191406 202.039062 169.4375 201.769531 170.65625 L 201.40625 172.617188 C 201.265625 173.28125 201.152344 173.867188 200.949219 174.46875 C 200.425781 176.046875 200 176.03125 198.640625 176.664062 C 196.949219 177.453125 195.605469 177.960938 193.976562 178.957031 C 193.515625 179.242188 193.042969 179.605469 192.679688 179.96875 C 191.460938 181.203125 190.609375 182.578125 189.898438 184.140625 C 189.722656 184.523438 189.375 185.34375 189.28125 185.722656 C 189.914062 185.582031 191.539062 184.175781 192.457031 183.761719 C 192.664062 183.667969 192.867188 183.605469 193.074219 183.527344 C 193.34375 183.398438 193.34375 183.367188 193.691406 183.289062 C 193.390625 183.730469 192.996094 184.015625 192.617188 184.410156 C 191.984375 185.058594 190.609375 187.761719 190.386719 188.648438 C 191.082031 188.488281 191.777344 188.046875 192.441406 187.777344 C 193.421875 187.398438 194.542969 186.988281 195.445312 186.386719 L 197.707031 184.378906 C 197.644531 185.121094 196.457031 187.113281 196.078125 188 C 195.792969 188.679688 195.304688 189.40625 195.144531 190.117188 C 195.984375 190.101562 197.25 189.296875 197.847656 188.933594 C 199.207031 188.078125 200.964844 186.386719 201.945312 185.21875 C 202.308594 184.789062 203.289062 183.320312 203.683594 183.179688 C 203.683594 183.84375 203.570312 184.09375 203.414062 184.617188 C 203.335938 184.871094 203.273438 184.933594 203.160156 185.21875 C 202.324219 187.144531 201.167969 188.820312 199.746094 190.355469 L 196.695312 193.152344 C 195.066406 194.386719 193.832031 194.5625 191.871094 195.035156 C 188.773438 195.808594 189.53125 195.824219 187.367188 194.972656 C 185.121094 194.085938 182.339844 195.320312 180.519531 196.253906 L 179.082031 197.011719 C 177.328125 197.882812 177.21875 197.914062 175.792969 197.296875 C 175.128906 197.011719 173.800781 197.042969 173.484375 196.679688 C 173.042969 196.15625 172.585938 195.589844 171.953125 195.273438 C 170.925781 194.75 169.613281 194.371094 168.425781 194.640625 C 168.441406 195.257812 168.363281 195.097656 168.855469 195.304688 C 169.597656 195.605469 170.417969 195.96875 170.625 196.835938 C 168.886719 196.695312 167.367188 195.984375 164.804688 198.214844 C 164.425781 198.546875 164.0625 198.625 163.921875 199.160156 C 166.214844 199.160156 168.078125 199.035156 170.386719 199.035156 C 169.660156 200.125 166.515625 199.667969 165.753906 201.105469 C 166.515625 201.105469 167.320312 201.46875 168 201.675781 C 169.027344 201.960938 170.132812 202.085938 171.242188 202.085938 C 173.613281 202.085938 173.121094 200.285156 176.394531 202.796875 C 177.535156 203.683594 178.703125 205.058594 181.21875 203.890625 C 181.800781 203.605469 182.054688 203.351562 182.71875 203.191406 C 182.117188 204.09375 181.5 204.648438 181.5 205.878906 C 180.601562 206.085938 180.378906 205.992188 179.542969 205.898438 C 178.449219 205.769531 176.171875 206.164062 175.273438 205.769531 C 173.46875 204.980469 172.046875 205.3125 170.199219 205.929688 C 169.40625 206.195312 169.042969 206.578125 168.269531 206.308594 C 167.019531 205.863281 165.800781 205.945312 164.457031 205.707031 C 162.878906 205.4375 159.84375 205.546875 157.867188 205.105469 C 154.847656 204.410156 154.230469 201.929688 149.898438 202.71875 C 147.90625 203.082031 146.972656 204.679688 145.773438 205.785156 C 144.378906 207.066406 143.464844 206.859375 141.738281 207.128906 C 139.210938 207.523438 136.332031 207.523438 133.835938 208.015625 C 131.90625 208.394531 129.535156 208.820312 127.558594 208.820312 C 124.429688 208.820312 121.203125 208.078125 118.359375 206.925781 C 116.730469 206.261719 116.664062 205.800781 114.925781 206.324219 C 112.082031 207.160156 112.601562 208.15625 112.269531 210.007812 C 111.9375 211.855469 112.792969 211.714844 113.046875 212.742188 C 113.296875 213.707031 113.425781 214.8125 114.152344 215.304688 C 114.152344 214.433594 114.105469 213.816406 114.277344 213.105469 L 114.515625 213.613281 C 114.65625 214.054688 114.847656 214.527344 115.164062 214.90625 C 116.082031 216.03125 115.75 215.066406 115.75 214.085938 L 116.175781 214.625 C 116.429688 215.191406 116.699219 216.109375 117.328125 216.269531 L 117.566406 214.070312 C 117.613281 214.65625 118.105469 215.824219 118.546875 216.140625 C 118.546875 215.414062 118.785156 214.671875 118.785156 213.945312 C 119.558594 214.007812 119.386719 214.734375 119.636719 215.289062 C 119.84375 215.730469 120.113281 216.253906 120.492188 216.503906 C 120.492188 215.777344 120.730469 215.035156 120.730469 214.308594 C 121.328125 214.449219 121.394531 214.511719 121.820312 214.796875 C 121.820312 215.554688 122.007812 217.863281 123.039062 217.976562 C 122.847656 217.152344 123.039062 216.347656 123.039062 215.539062 C 123.621094 215.589844 123.558594 215.570312 123.667969 216.015625 C 123.84375 216.742188 123.921875 217.929688 124.507812 218.355469 L 124.632812 216.140625 L 125.359375 216.285156 C 125.503906 216.914062 125.597656 217.28125 125.882812 217.832031 C 126.121094 218.261719 126.339844 218.71875 126.816406 218.84375 C 126.816406 218.148438 126.707031 217.136719 126.941406 216.648438 C 127.464844 216.835938 127.511719 217.628906 127.71875 218.070312 C 127.921875 218.511719 128.175781 219.066406 128.539062 219.335938 C 128.714844 218.609375 128.664062 217.785156 128.664062 217.011719 L 129.394531 217.011719 C 129.675781 217.613281 129.851562 219.128906 130.609375 219.335938 L 130.484375 217.265625 L 130.847656 217.265625 C 131.035156 218.070312 131.179688 218.875 131.652344 219.507812 C 131.828125 219.746094 131.984375 219.761719 132.300781 219.824219 L 132.300781 217.265625 C 132.730469 217.375 132.585938 217.28125 132.730469 217.691406 C 132.808594 217.945312 132.839844 218.179688 132.902344 218.371094 C 133.011719 218.75 133.109375 219.253906 133.488281 219.382812 C 134.386719 219.699219 133.15625 217.375 134.007812 217.375 C 134.277344 217.375 134.230469 217.753906 134.339844 218.023438 C 134.546875 218.558594 134.800781 219.539062 135.351562 219.699219 C 135.117188 219.207031 135.226562 218.195312 135.226562 217.5 C 136.128906 217.296875 135.984375 217.753906 136.175781 218.496094 C 136.347656 219.175781 136.679688 219.476562 136.808594 220.0625 C 137.171875 219.792969 137.109375 219.492188 137.171875 218.84375 C 137.21875 218.339844 137.25 217.863281 137.425781 217.5 C 138.308594 217.5 138.105469 219.492188 139.003906 219.824219 L 139.132812 217.628906 C 139.699219 217.644531 139.636719 217.578125 139.796875 218.054688 C 140 218.65625 140.253906 219.289062 140.664062 219.746094 C 140.839844 219.953125 140.695312 219.839844 140.964844 219.9375 C 140.964844 219.476562 140.964844 218.179688 141.1875 217.945312 C 141.3125 217.800781 141.519531 217.894531 141.644531 218.007812 L 142.671875 220.046875 C 142.703125 219.683594 143.019531 218.625 143.164062 218.339844 C 143.652344 218.449219 143.667969 218.449219 143.765625 218.957031 C 143.859375 219.398438 143.921875 219.539062 144.015625 219.9375 C 143.542969 220.15625 143.019531 220.171875 142.308594 220.171875 C 142.183594 219.714844 141.945312 219.605469 141.820312 219.082031 L 141.582031 219.082031 C 141.582031 219.792969 141.457031 219.9375 141.457031 220.550781 C 140.980469 220.550781 140.964844 220.582031 140.601562 220.679688 C 140.378906 220.347656 140.191406 220.140625 139.96875 219.730469 C 139.667969 219.144531 139.9375 219.097656 139.382812 218.734375 C 139.527344 219.320312 139.480469 219.398438 139.511719 220.078125 C 139.542969 220.773438 139.796875 220.695312 139.273438 221.042969 C 138.734375 220.679688 137.960938 219.476562 137.566406 219.335938 C 137.566406 219.917969 137.707031 220.21875 137.804688 220.695312 C 138.199219 222.574219 136.507812 219.808594 136.222656 219.460938 C 136.222656 220.394531 136.761719 221.785156 136.097656 221.785156 C 136 221.785156 135.433594 221.011719 135.304688 220.851562 C 135.070312 220.535156 134.816406 220.0625 134.5 219.953125 C 134.5 222.085938 134.894531 222.386719 133.773438 222.386719 C 133.550781 221.960938 133.328125 221.691406 133.125 221.199219 C 132.964844 220.820312 132.710938 220.269531 132.679688 219.871094 L 132.429688 219.824219 C 132.414062 220.378906 132.300781 220.472656 132.300781 221.167969 C 132.300781 221.613281 132.300781 222.070312 132.300781 222.511719 C 132.015625 222.417969 132.066406 222.511719 131.890625 222.070312 C 131.636719 221.421875 131.683594 220.804688 131.683594 220.140625 C 131.386719 220.269531 131.667969 219.808594 131.417969 220.410156 C 131.070312 221.246094 131.195312 222.464844 131.195312 223.367188 C 130.863281 223.398438 130.863281 223.429688 130.578125 223.492188 C 130.421875 223.191406 130.214844 222.6875 130.121094 222.371094 C 129.992188 221.945312 129.773438 221.691406 129.726562 221.230469 C 129.394531 221.296875 129.566406 220.949219 129.375 221.691406 C 129.15625 222.496094 129.109375 223.050781 129.109375 223.984375 C 128.746094 224.0625 128.414062 224.1875 128.015625 224.21875 C 127.589844 223.335938 127.527344 222.796875 127.527344 221.46875 C 126.753906 221.769531 126.910156 223.902344 126.910156 224.582031 C 126.640625 224.648438 126.625 224.710938 126.292969 224.710938 C 125.675781 224.710938 125.3125 222.339844 124.949219 221.910156 C 124.949219 222.558594 124.949219 223.207031 124.949219 223.855469 C 124.964844 226.039062 124.082031 225.3125 123.621094 224.09375 C 123.402344 223.492188 123.371094 223.335938 123.371094 222.527344 C 122.707031 223.019531 122.816406 224.550781 123.003906 225.328125 L 122.640625 225.328125 C 122.59375 224.835938 122.355469 224.519531 122.214844 223.917969 C 122.121094 223.507812 122.027344 222.765625 122.027344 222.339844 L 121.710938 222.941406 C 121.488281 223.855469 121.425781 224.347656 121.425781 225.328125 C 120.367188 224.617188 120.332031 223.492188 119.71875 222.574219 C 119.703125 222.589844 119.667969 222.625 119.652344 222.625 L 119.511719 222.8125 C 119.433594 223.019531 119.480469 223.035156 119.464844 223.238281 C 119.386719 223.886719 119.335938 224.1875 119.511719 224.914062 C 119.605469 225.296875 119.667969 225.261719 119.703125 225.691406 C 118.59375 225.390625 118.800781 223.382812 118.359375 222.765625 C 118.214844 223.351562 118.089844 223.636719 117.976562 224.332031 C 117.929688 224.648438 117.851562 224.757812 117.914062 225.152344 C 117.960938 225.40625 118.089844 225.816406 117.742188 225.816406 C 116.539062 225.816406 116.238281 222.988281 116.035156 222.640625 C 115.90625 223.253906 115.667969 223.699219 115.667969 224.472656 C 115.667969 225.183594 116.175781 226.054688 115.542969 226.054688 C 115.226562 226.054688 114.925781 224.632812 114.925781 224.21875 C 114.925781 223.585938 115.054688 223.652344 115.054688 223.066406 C 114.738281 223.175781 114.578125 223.585938 114.4375 223.984375 C 113.976562 225.199219 114.324219 225.167969 114.390625 226.101562 C 114.421875 226.496094 114.199219 226.386719 114.199219 226.90625 L 114.199219 227.761719 C 114.199219 229.644531 116.269531 231.761719 118.089844 231.933594 C 121.773438 232.265625 122.640625 229.5 129.28125 231.714844 C 132.144531 232.664062 133.011719 232.773438 135.921875 232.773438 C 138.546875 232.773438 141.171875 231.839844 143.746094 231.445312 C 145.992188 231.097656 149.058594 230.210938 151.273438 231.335938 C 151.667969 231.523438 151.78125 231.585938 152.128906 231.824219 C 152.425781 232.03125 152.617188 232.15625 152.917969 232.378906 C 155.195312 234.132812 158.449219 233.832031 161.171875 233.5 C 163.621094 233.214844 162.71875 232.710938 164.03125 233.707031 L 166.246094 235.019531 C 168.710938 235.902344 171.476562 236.441406 174.101562 236.441406 C 179.859375 236.425781 180.726562 236.980469 186.734375 235.285156 C 187.90625 234.953125 189.105469 234.496094 190.210938 234.132812 L 194.71875 232.789062 C 195.097656 232.710938 195.398438 232.648438 195.714844 232.566406 C 196.285156 232.425781 197.136719 232.28125 197.675781 232.203125 L 206.433594 231.683594 C 208.457031 231.523438 209.863281 231.492188 211.808594 231.191406 C 212.203125 231.128906 212.503906 231.035156 212.804688 230.972656 L 217.625 229.941406 C 217.878906 229.878906 218.242188 229.863281 218.558594 229.769531 C 221.058594 229.074219 223.667969 228.726562 226.195312 228.140625 C 226.148438 228.726562 226.070312 228.503906 225.753906 228.914062 C 225.53125 229.199219 225.484375 229.375 225.292969 229.675781 C 223.585938 232.457031 223.445312 235.855469 224.394531 238.96875 C 224.613281 239.683594 225.675781 241.34375 225.707031 241.800781 C 225.292969 241.894531 225.058594 242.070312 224.710938 242.257812 L 222.164062 244.09375 C 221.957031 244.3125 221.722656 244.679688 221.546875 244.929688 C 220.078125 247.113281 220.835938 248.992188 220.835938 250.449219 C 221.246094 250.148438 221.816406 248.347656 222.101562 247.808594 C 222.496094 247.050781 223.128906 246.148438 224.015625 245.941406 C 223.886719 247.429688 222.875 249.152344 223.667969 251.300781 C 223.792969 251.648438 223.839844 251.824219 224.140625 252.046875 C 224.21875 251.730469 224.378906 251.351562 224.488281 251.050781 C 224.613281 250.703125 224.742188 250.433594 224.898438 250.117188 C 225.199219 249.515625 225.390625 248.960938 225.691406 248.347656 C 226.085938 247.539062 227.035156 245.691406 227.933594 245.453125 C 227.933594 247.917969 228.742188 250.84375 230.984375 252.046875 C 230.9375 251.445312 230.605469 250.890625 230.527344 250.304688 C 230.273438 248.550781 230.417969 246.179688 231.113281 244.726562 C 232.078125 245.375 233.183594 247.933594 234.039062 248.503906 C 234.304688 247.933594 234.226562 245.152344 234.085938 244.425781 C 233.832031 243.128906 233.324219 242.132812 233.183594 240.820312 C 232.898438 238.355469 232.347656 238.765625 233.34375 237.691406 C 234.8125 236.0625 236.078125 234.085938 236.773438 231.984375 C 238.070312 228.0625 238.164062 223.984375 235.792969 220.410156 C 234.890625 219.050781 233.722656 216.804688 231.964844 216.550781 C 232.0625 216.171875 232.0625 216.269531 232.347656 216.078125 L 239.886719 210.6875 C 241.515625 209.296875 243.191406 207.871094 244.582031 206.230469 L 246.449219 204.0625 C 247.476562 202.828125 248.457031 201.375 249.167969 199.953125 C 250.132812 198.007812 251.015625 196.03125 251.476562 193.851562 C 251.886719 191.9375 252.0625 189.707031 251.839844 187.761719 C 251.695312 186.5625 250.90625 184.191406 250.875 183.730469 C 251.363281 184.0625 251.632812 184.554688 252.0625 184.980469 C 254.242188 187.144531 256.472656 187.621094 259.539062 186.910156 C 259.476562 187.414062 259.097656 187.589844 258.714844 188.03125 C 257.578125 189.359375 256.675781 190.878906 255.949219 192.457031 C 254.652344 195.210938 253.785156 198.023438 255.792969 200.664062 C 256.390625 201.453125 257.105469 202.070312 258.019531 202.449219 C 259 202.859375 260.1875 203.019531 261.121094 202.511719 C 260.375 201.40625 259.507812 201.089844 258.511719 198.65625 C 258.117188 197.675781 257.847656 194.925781 258.796875 194.230469 C 258.78125 195.082031 258.652344 194.878906 258.78125 195.824219 C 258.859375 196.425781 258.890625 196.757812 259.046875 197.265625 C 259.316406 198.085938 259.695312 198.910156 260.234375 199.621094 C 261.355469 201.105469 262.667969 201.847656 264.519531 202.277344 C 264.519531 201.296875 263.886719 199.808594 263.585938 198.941406 C 263.476562 198.609375 263.394531 198.402344 263.285156 198.132812 C 263.175781 197.847656 263.144531 197.535156 263.0625 197.265625 C 262.273438 194.59375 263.410156 193.167969 263.410156 192.285156 L 263.539062 192.285156 C 263.539062 195.035156 262.78125 198.308594 265.785156 199.792969 C 266.984375 200.394531 268.390625 200.773438 269.75 200.457031 C 269.703125 199.875 269.453125 199.636719 269.199219 199.175781 L 267.917969 196.554688 C 267.015625 194.355469 266.464844 192.015625 267.253906 189.675781 C 268.089844 187.195312 269.261719 186.957031 269.261719 183.257812 C 269.261719 179.621094 267.949219 176.160156 264.457031 174.765625 C 263.617188 174.433594 261.847656 174.101562 260.722656 174.101562 C 255.726562 174.101562 256.722656 174.816406 256.457031 172.523438 C 256.140625 169.835938 254.90625 166.878906 252.441406 165.566406 L 253.292969 164.222656 C 254.210938 162.386719 253.71875 160.015625 253.421875 158.105469 C 252.882812 154.671875 251.460938 151.75 249.578125 148.886719 C 249.214844 148.332031 248.882812 147.921875 248.503906 147.402344 C 248.25 147.070312 248.171875 146.972656 247.902344 146.671875 L 246.734375 145.28125 C 245.894531 144.207031 243.839844 142.390625 242.78125 141.441406 L 241.074219 139.859375 C 240.867188 139.683594 240.898438 139.75 240.710938 139.605469 C 240.378906 139.351562 240.378906 139.257812 239.980469 139.003906 L 237.847656 137.363281 C 237.546875 137.140625 237.375 136.980469 237.105469 136.761719 C 236.835938 136.539062 236.660156 136.300781 236.34375 136.300781 C 236.0625 136.300781 235.207031 137.09375 235.128906 137.394531 C 234.667969 137.265625 234.8125 137.328125 234.652344 136.886719 C 234.542969 136.585938 234.527344 136.539062 234.402344 136.285156 C 234.257812 136 234.257812 135.921875 234.117188 135.589844 C 233.65625 134.46875 232.3125 136.347656 232.203125 136.761719 C 231.730469 136.414062 231.523438 134.292969 230.371094 133.472656 C 230.054688 133.929688 228.851562 135.765625 228.296875 135.90625 C 228.21875 134.878906 227.476562 133.171875 226.828125 132.730469 C 226.480469 132.964844 226.257812 133.234375 225.941406 133.550781 L 225.105469 134.292969 C 225.089844 134.308594 225.058594 134.339844 225.042969 134.359375 L 224.664062 134.707031 C 224.15625 135.148438 223.855469 135.90625 223.777344 134.671875 C 223.667969 133.21875 222.402344 131.386719 220.851562 131.257812 C 220.726562 131.828125 220.332031 133.613281 219.871094 133.945312 C 219.683594 133.25 217.121094 131.085938 216.945312 130.40625 L 216.710938 130.40625 C 216.710938 130.878906 216.582031 131.433594 216.488281 131.765625 C 216.363281 132.175781 216.1875 132.460938 216.109375 132.839844 L 215.746094 132.839844 C 215.636719 132.429688 215.382812 132.285156 215.113281 132.019531 Z M 215.128906 132.019531 " fill-opacity="1" fill-rule="evenodd"/></g></svg>