<svg xmlns="http://www.w3.org/2000/svg" xmlns:xlink="http://www.w3.org/1999/xlink" width="40" zoomAndPan="magnify" viewBox="0 0 30 30.000001" height="40" preserveAspectRatio="xMidYMid meet" version="1.0"><defs><clipPath id="a693e86026"><path d="M 0.484375 0 L 29.515625 0 L 29.515625 29.03125 L 0.484375 29.03125 Z M 0.484375 0 " clip-rule="nonzero"/></clipPath><clipPath id="71c6d92814"><path d="M 3.386719 5.472656 L 26.613281 5.472656 L 26.613281 23.617188 L 3.386719 23.617188 Z M 3.386719 5.472656 " clip-rule="nonzero"/></clipPath></defs><g clip-path="url(#a693e86026)"><path fill="#ffffff" d="M 0.484375 0 L 29.515625 0 L 29.515625 29.03125 L 0.484375 29.03125 Z M 0.484375 0 " fill-opacity="1" fill-rule="nonzero"/><path fill="#8e8e55" d="M 0.484375 0 L 29.515625 0 L 29.515625 29.03125 L 0.484375 29.03125 Z M 0.484375 0 " fill-opacity="1" fill-rule="nonzero"/></g><g clip-path="url(#71c6d92814)"><path fill="#152703" d="M 8.15625 18.808594 C 8.164062 18.710938 8.191406 18.714844 8.210938 18.648438 C 8.300781 18.691406 8.347656 18.730469 8.410156 18.738281 L 8.410156 18.789062 Z M 18.585938 5.863281 C 18.472656 5.757812 18.3125 5.660156 18.140625 5.660156 C 18.082031 5.660156 18.105469 5.898438 18.105469 5.964844 C 18.015625 5.90625 17.675781 5.527344 17.371094 5.480469 C 17.371094 5.589844 17.382812 5.617188 17.390625 5.699219 C 17.203125 5.652344 17.28125 5.570312 16.941406 5.570312 L 16.90625 5.648438 C 16.878906 5.722656 16.839844 5.8125 16.832031 5.894531 C 16.769531 5.878906 16.753906 5.847656 16.710938 5.800781 C 16.667969 5.757812 16.644531 5.746094 16.597656 5.714844 C 16.539062 5.671875 16.417969 5.613281 16.308594 5.605469 C 16.304688 5.660156 16.273438 5.859375 16.257812 5.894531 C 16.160156 5.867188 16 5.722656 15.769531 5.664062 C 15.539062 5.605469 15.628906 5.582031 15.628906 6.109375 C 15.550781 6.089844 15.492188 6.058594 15.414062 6.03125 C 15.191406 5.957031 14.957031 5.929688 14.691406 5.929688 C 14.613281 5.929688 14.589844 5.945312 14.652344 6.003906 C 14.730469 6.085938 14.808594 6.199219 14.820312 6.324219 C 14.738281 6.316406 14.59375 6.230469 14.527344 6.199219 C 14.265625 6.082031 13.945312 5.894531 13.648438 5.894531 C 13.667969 6.078125 13.722656 6.238281 13.722656 6.429688 C 13.546875 6.390625 13.351562 6.296875 13.167969 6.285156 C 13.171875 6.339844 13.210938 6.535156 13.1875 6.558594 C 13.167969 6.578125 13.132812 6.539062 13.097656 6.515625 C 12.929688 6.40625 12.742188 6.324219 12.503906 6.324219 L 12.503906 6.648438 C 12.21875 6.457031 12.261719 6.414062 11.835938 6.414062 C 11.835938 6.644531 11.917969 6.703125 11.929688 6.84375 C 11.777344 6.832031 11.59375 6.699219 11.226562 6.699219 C 11.242188 6.753906 11.273438 6.792969 11.308594 6.839844 C 11.335938 6.882812 11.363281 6.914062 11.386719 6.953125 C 11.234375 6.953125 10.929688 6.882812 10.796875 6.898438 C 10.730469 6.90625 10.707031 6.914062 10.617188 6.914062 L 10.742188 7.257812 C 10.679688 7.242188 10.671875 7.207031 10.613281 7.171875 C 10.414062 7.039062 10.304688 7.085938 10.113281 7.132812 C 10.113281 7.257812 10.140625 7.324219 10.191406 7.414062 L 10.210938 7.449219 C 10.28125 7.570312 10.078125 7.476562 9.914062 7.46875 C 9.871094 7.464844 9.816406 7.472656 9.773438 7.46875 C 9.71875 7.464844 9.71875 7.453125 9.644531 7.453125 L 9.664062 7.652344 C 9.683594 7.722656 9.621094 7.683594 9.589844 7.667969 C 9.410156 7.585938 9.125 7.5625 8.964844 7.652344 C 8.96875 7.726562 9 7.828125 9.023438 7.894531 C 9.039062 7.933594 9.054688 7.960938 9.066406 7.996094 C 9.097656 8.058594 9.101562 8.03125 9.105469 8.097656 C 9.003906 8.097656 8.988281 8.082031 8.90625 8.082031 C 8.828125 8.078125 8.796875 8.085938 8.71875 8.070312 C 8.613281 8.054688 8.445312 8.046875 8.332031 8.046875 C 8.355469 8.160156 8.445312 8.214844 8.472656 8.332031 C 8.378906 8.332031 8.160156 8.261719 7.882812 8.261719 C 7.898438 8.328125 7.925781 8.363281 7.957031 8.417969 C 7.96875 8.4375 7.960938 8.4375 7.972656 8.457031 L 8.023438 8.566406 C 7.882812 8.566406 7.773438 8.527344 7.636719 8.503906 C 7.496094 8.480469 7.375 8.476562 7.214844 8.476562 C 7.246094 8.601562 7.410156 8.714844 7.433594 8.945312 C 7.179688 8.945312 7.011719 8.808594 6.855469 8.800781 C 6.902344 8.894531 6.917969 9.042969 6.945312 9.144531 C 7 9.34375 6.632812 9.027344 6.371094 9.015625 L 6.464844 9.246094 C 6.40625 9.234375 6.417969 9.230469 6.378906 9.207031 C 6.292969 9.160156 6.195312 9.140625 6.101562 9.125 C 5.890625 9.089844 5.925781 9.167969 5.941406 9.304688 C 5.945312 9.335938 5.945312 9.378906 5.945312 9.40625 C 5.8125 9.40625 5.722656 9.324219 5.585938 9.316406 L 5.585938 9.621094 C 5.488281 9.667969 5.34375 9.648438 5.226562 9.640625 C 5.179688 9.636719 5.027344 9.578125 5.042969 9.664062 C 5.042969 9.664062 5.070312 9.742188 5.078125 9.753906 C 5.152344 9.964844 5.175781 9.9375 5.007812 10.0625 C 4.945312 10.109375 4.933594 10.125 4.882812 10.171875 C 4.835938 10.222656 4.820312 10.246094 4.777344 10.300781 C 4.726562 10.355469 4.699219 10.371094 4.691406 10.449219 C 4.742188 10.425781 4.796875 10.414062 4.851562 10.394531 C 5.015625 10.332031 5.195312 10.300781 5.355469 10.253906 C 5.574219 10.183594 5.820312 10.160156 6.050781 10.101562 C 6.097656 10.089844 6.179688 10.085938 6.234375 10.074219 L 6.777344 9.988281 C 7.214844 9.914062 7.679688 9.882812 8.117188 9.835938 C 8.15625 9.832031 8.238281 9.824219 8.292969 9.816406 C 8.410156 9.796875 8.554688 9.792969 8.679688 9.773438 L 9.820312 9.65625 C 9.867188 9.652344 9.957031 9.628906 10.003906 9.625 C 10.449219 9.578125 10.871094 9.511719 11.300781 9.433594 C 11.761719 9.347656 12.222656 9.226562 12.664062 9.105469 L 13.671875 8.839844 C 14.007812 8.746094 14.359375 8.671875 14.703125 8.609375 L 15.433594 8.496094 C 15.5 8.484375 15.5625 8.472656 15.625 8.472656 C 15.726562 8.472656 15.75 8.460938 15.824219 8.457031 C 16.171875 8.429688 16.574219 8.417969 16.917969 8.457031 C 16.972656 8.464844 16.953125 8.472656 17.027344 8.472656 C 17.265625 8.484375 17.484375 8.527344 17.71875 8.570312 C 18.175781 8.65625 18.585938 8.855469 18.882812 9.203125 C 19.15625 9.53125 19.359375 9.910156 19.164062 10.339844 C 19.136719 10.40625 19.152344 10.390625 19.085938 10.417969 L 18.734375 10.574219 C 18.699219 10.589844 18.660156 10.605469 18.625 10.625 C 18.585938 10.644531 18.554688 10.660156 18.519531 10.683594 C 18.34375 10.769531 18.15625 10.875 17.996094 10.988281 C 17.957031 11.019531 17.957031 11.023438 17.902344 11.054688 C 17.761719 11.132812 17.617188 11.132812 17.457031 11.132812 C 17.269531 11.132812 17.039062 11.015625 16.863281 11.113281 C 16.730469 11.1875 16.660156 11.371094 16.621094 11.550781 L 16.566406 11.839844 C 16.546875 11.9375 16.527344 12.023438 16.5 12.113281 C 16.421875 12.34375 16.359375 12.34375 16.160156 12.433594 C 15.910156 12.550781 15.710938 12.625 15.472656 12.773438 C 15.40625 12.816406 15.335938 12.867188 15.28125 12.921875 C 15.101562 13.101562 14.976562 13.304688 14.871094 13.535156 C 14.847656 13.59375 14.796875 13.714844 14.78125 13.769531 C 14.875 13.746094 15.113281 13.539062 15.25 13.480469 C 15.277344 13.464844 15.308594 13.457031 15.339844 13.445312 C 15.378906 13.425781 15.378906 13.421875 15.429688 13.410156 C 15.386719 13.476562 15.328125 13.515625 15.273438 13.574219 C 15.179688 13.671875 14.976562 14.070312 14.945312 14.199219 C 15.046875 14.175781 15.148438 14.109375 15.246094 14.070312 C 15.390625 14.015625 15.554688 13.953125 15.6875 13.867188 L 16.023438 13.570312 C 16.011719 13.679688 15.835938 13.972656 15.78125 14.105469 C 15.738281 14.203125 15.667969 14.3125 15.644531 14.414062 C 15.769531 14.414062 15.953125 14.292969 16.042969 14.242188 C 16.242188 14.117188 16.5 13.867188 16.644531 13.695312 C 16.699219 13.632812 16.84375 13.414062 16.902344 13.394531 C 16.902344 13.492188 16.886719 13.527344 16.863281 13.605469 C 16.851562 13.644531 16.839844 13.652344 16.824219 13.695312 C 16.703125 13.976562 16.53125 14.226562 16.320312 14.449219 L 15.871094 14.863281 C 15.632812 15.042969 15.453125 15.070312 15.164062 15.140625 C 14.707031 15.253906 14.820312 15.253906 14.5 15.128906 C 14.167969 15 13.757812 15.179688 13.492188 15.320312 L 13.28125 15.429688 C 13.023438 15.558594 13.003906 15.5625 12.796875 15.472656 C 12.699219 15.429688 12.503906 15.433594 12.457031 15.382812 C 12.390625 15.304688 12.324219 15.222656 12.230469 15.175781 C 12.078125 15.097656 11.886719 15.042969 11.710938 15.082031 C 11.714844 15.171875 11.703125 15.148438 11.773438 15.179688 C 11.882812 15.222656 12.003906 15.277344 12.035156 15.40625 C 11.777344 15.382812 11.554688 15.277344 11.179688 15.605469 C 11.121094 15.65625 11.070312 15.667969 11.046875 15.746094 C 11.386719 15.746094 11.660156 15.726562 12 15.726562 C 11.894531 15.890625 11.429688 15.820312 11.316406 16.03125 C 11.429688 16.03125 11.546875 16.085938 11.648438 16.117188 C 11.800781 16.160156 11.964844 16.175781 12.125 16.175781 C 12.476562 16.175781 12.402344 15.914062 12.882812 16.28125 C 13.050781 16.414062 13.222656 16.613281 13.59375 16.441406 C 13.679688 16.402344 13.71875 16.363281 13.816406 16.339844 C 13.726562 16.472656 13.636719 16.554688 13.636719 16.734375 C 13.503906 16.765625 13.472656 16.753906 13.347656 16.738281 C 13.1875 16.71875 12.851562 16.777344 12.71875 16.71875 C 12.453125 16.601562 12.246094 16.652344 11.972656 16.742188 C 11.855469 16.78125 11.800781 16.839844 11.6875 16.796875 C 11.503906 16.734375 11.324219 16.746094 11.128906 16.710938 C 10.894531 16.671875 10.449219 16.6875 10.15625 16.621094 C 9.710938 16.519531 9.621094 16.152344 8.984375 16.269531 C 8.691406 16.324219 8.554688 16.558594 8.375 16.722656 C 8.171875 16.910156 8.035156 16.878906 7.785156 16.917969 C 7.410156 16.976562 6.988281 16.976562 6.621094 17.050781 C 6.335938 17.105469 5.988281 17.167969 5.695312 17.167969 C 5.234375 17.167969 4.761719 17.058594 4.339844 16.890625 C 4.101562 16.792969 4.09375 16.722656 3.835938 16.800781 C 3.417969 16.925781 3.496094 17.070312 3.445312 17.34375 C 3.394531 17.617188 3.523438 17.59375 3.558594 17.746094 C 3.597656 17.886719 3.613281 18.050781 3.722656 18.121094 C 3.722656 17.996094 3.714844 17.902344 3.742188 17.800781 L 3.777344 17.875 C 3.796875 17.9375 3.824219 18.007812 3.871094 18.066406 C 4.007812 18.230469 3.957031 18.089844 3.957031 17.945312 L 4.019531 18.023438 C 4.058594 18.105469 4.097656 18.242188 4.191406 18.265625 L 4.226562 17.941406 C 4.230469 18.027344 4.304688 18.199219 4.371094 18.246094 C 4.371094 18.140625 4.402344 18.03125 4.402344 17.921875 C 4.519531 17.933594 4.492188 18.039062 4.53125 18.121094 C 4.558594 18.1875 4.597656 18.261719 4.65625 18.300781 C 4.65625 18.191406 4.691406 18.082031 4.691406 17.976562 C 4.777344 17.996094 4.789062 18.007812 4.851562 18.046875 C 4.851562 18.160156 4.878906 18.5 5.03125 18.515625 C 5.003906 18.394531 5.03125 18.277344 5.03125 18.15625 C 5.117188 18.164062 5.105469 18.164062 5.125 18.226562 C 5.148438 18.335938 5.160156 18.507812 5.246094 18.570312 L 5.265625 18.246094 L 5.371094 18.265625 C 5.394531 18.359375 5.40625 18.414062 5.449219 18.496094 C 5.484375 18.558594 5.515625 18.625 5.585938 18.644531 C 5.585938 18.542969 5.570312 18.394531 5.605469 18.320312 C 5.683594 18.347656 5.6875 18.464844 5.71875 18.53125 C 5.75 18.59375 5.785156 18.675781 5.839844 18.714844 C 5.867188 18.609375 5.859375 18.488281 5.859375 18.375 L 5.964844 18.375 C 6.007812 18.460938 6.03125 18.6875 6.144531 18.714844 L 6.125 18.410156 L 6.179688 18.410156 C 6.207031 18.53125 6.230469 18.648438 6.296875 18.742188 C 6.324219 18.777344 6.347656 18.777344 6.394531 18.789062 L 6.394531 18.410156 C 6.457031 18.429688 6.4375 18.414062 6.457031 18.472656 C 6.46875 18.511719 6.472656 18.546875 6.480469 18.574219 C 6.5 18.628906 6.511719 18.703125 6.570312 18.722656 C 6.699219 18.769531 6.519531 18.429688 6.644531 18.429688 C 6.683594 18.429688 6.679688 18.484375 6.695312 18.523438 C 6.722656 18.601562 6.761719 18.746094 6.84375 18.769531 C 6.808594 18.699219 6.824219 18.550781 6.824219 18.445312 C 6.957031 18.417969 6.9375 18.484375 6.964844 18.59375 C 6.988281 18.691406 7.039062 18.738281 7.058594 18.824219 C 7.109375 18.785156 7.101562 18.738281 7.109375 18.644531 C 7.117188 18.570312 7.121094 18.5 7.148438 18.445312 C 7.277344 18.445312 7.246094 18.738281 7.378906 18.789062 L 7.398438 18.464844 C 7.484375 18.46875 7.472656 18.457031 7.496094 18.527344 C 7.527344 18.617188 7.566406 18.710938 7.625 18.777344 C 7.652344 18.808594 7.628906 18.789062 7.667969 18.804688 C 7.667969 18.738281 7.667969 18.546875 7.703125 18.511719 C 7.71875 18.492188 7.75 18.503906 7.769531 18.519531 L 7.921875 18.820312 C 7.925781 18.769531 7.972656 18.613281 7.992188 18.570312 C 8.066406 18.585938 8.066406 18.585938 8.082031 18.660156 C 8.09375 18.726562 8.105469 18.746094 8.117188 18.804688 C 8.046875 18.835938 7.972656 18.839844 7.867188 18.839844 C 7.847656 18.773438 7.8125 18.757812 7.792969 18.679688 L 7.761719 18.679688 C 7.761719 18.785156 7.742188 18.804688 7.742188 18.894531 C 7.671875 18.894531 7.667969 18.898438 7.617188 18.914062 C 7.582031 18.867188 7.554688 18.835938 7.523438 18.773438 C 7.476562 18.6875 7.519531 18.679688 7.4375 18.628906 C 7.457031 18.714844 7.449219 18.726562 7.457031 18.824219 C 7.460938 18.929688 7.496094 18.917969 7.421875 18.96875 C 7.339844 18.914062 7.226562 18.738281 7.167969 18.714844 C 7.167969 18.800781 7.191406 18.847656 7.203125 18.917969 C 7.261719 19.195312 7.011719 18.785156 6.972656 18.734375 C 6.972656 18.871094 7.050781 19.078125 6.953125 19.078125 C 6.9375 19.078125 6.855469 18.964844 6.835938 18.941406 C 6.800781 18.894531 6.765625 18.824219 6.71875 18.808594 C 6.71875 19.121094 6.777344 19.164062 6.609375 19.164062 C 6.578125 19.101562 6.546875 19.0625 6.515625 18.992188 C 6.492188 18.933594 6.453125 18.855469 6.449219 18.796875 L 6.414062 18.789062 C 6.410156 18.871094 6.394531 18.882812 6.394531 18.988281 C 6.394531 19.050781 6.394531 19.117188 6.394531 19.183594 C 6.351562 19.171875 6.359375 19.183594 6.332031 19.117188 C 6.296875 19.023438 6.304688 18.933594 6.304688 18.835938 C 6.257812 18.855469 6.300781 18.785156 6.261719 18.875 C 6.210938 19 6.230469 19.175781 6.230469 19.308594 C 6.183594 19.316406 6.183594 19.320312 6.140625 19.328125 C 6.117188 19.285156 6.085938 19.210938 6.074219 19.164062 C 6.054688 19.101562 6.023438 19.0625 6.015625 18.996094 C 5.964844 19.003906 5.992188 18.953125 5.964844 19.0625 C 5.929688 19.183594 5.921875 19.261719 5.921875 19.402344 C 5.871094 19.414062 5.820312 19.429688 5.761719 19.4375 C 5.699219 19.304688 5.691406 19.226562 5.691406 19.03125 C 5.578125 19.074219 5.601562 19.390625 5.601562 19.488281 C 5.5625 19.5 5.558594 19.507812 5.507812 19.507812 C 5.417969 19.507812 5.367188 19.160156 5.3125 19.097656 C 5.3125 19.191406 5.3125 19.285156 5.3125 19.382812 C 5.3125 19.703125 5.183594 19.597656 5.117188 19.417969 C 5.082031 19.328125 5.078125 19.304688 5.078125 19.1875 C 4.980469 19.257812 4.996094 19.484375 5.027344 19.597656 L 4.972656 19.597656 C 4.964844 19.527344 4.929688 19.480469 4.910156 19.390625 C 4.894531 19.332031 4.882812 19.222656 4.882812 19.160156 L 4.835938 19.246094 C 4.800781 19.382812 4.792969 19.453125 4.792969 19.597656 C 4.636719 19.492188 4.632812 19.328125 4.542969 19.195312 C 4.539062 19.195312 4.535156 19.199219 4.53125 19.199219 L 4.511719 19.226562 C 4.5 19.257812 4.507812 19.261719 4.503906 19.292969 C 4.492188 19.386719 4.484375 19.429688 4.511719 19.539062 C 4.523438 19.59375 4.535156 19.589844 4.539062 19.652344 C 4.375 19.609375 4.40625 19.3125 4.339844 19.222656 C 4.320312 19.308594 4.300781 19.347656 4.285156 19.453125 C 4.277344 19.5 4.265625 19.515625 4.277344 19.574219 C 4.28125 19.609375 4.300781 19.671875 4.25 19.671875 C 4.074219 19.671875 4.03125 19.253906 4 19.203125 C 3.980469 19.292969 3.945312 19.359375 3.945312 19.472656 C 3.945312 19.578125 4.019531 19.707031 3.925781 19.707031 C 3.878906 19.707031 3.835938 19.496094 3.835938 19.4375 C 3.835938 19.34375 3.855469 19.351562 3.855469 19.265625 C 3.808594 19.28125 3.785156 19.34375 3.765625 19.402344 C 3.695312 19.578125 3.746094 19.574219 3.757812 19.710938 C 3.761719 19.769531 3.730469 19.753906 3.730469 19.832031 L 3.730469 19.957031 C 3.730469 20.234375 4.035156 20.546875 4.300781 20.570312 C 4.84375 20.621094 4.972656 20.210938 5.949219 20.539062 C 6.371094 20.679688 6.5 20.695312 6.925781 20.695312 C 7.3125 20.695312 7.699219 20.558594 8.078125 20.5 C 8.410156 20.449219 8.859375 20.316406 9.1875 20.484375 C 9.246094 20.511719 9.261719 20.519531 9.3125 20.554688 C 9.355469 20.585938 9.382812 20.605469 9.429688 20.636719 C 9.765625 20.894531 10.242188 20.851562 10.644531 20.800781 C 11.003906 20.761719 10.871094 20.683594 11.066406 20.832031 L 11.390625 21.023438 C 11.753906 21.15625 12.160156 21.234375 12.546875 21.234375 C 13.394531 21.230469 13.523438 21.3125 14.40625 21.066406 C 14.578125 21.015625 14.753906 20.949219 14.917969 20.894531 L 15.582031 20.695312 C 15.636719 20.683594 15.683594 20.675781 15.726562 20.664062 C 15.8125 20.644531 15.9375 20.621094 16.015625 20.609375 L 17.304688 20.535156 C 17.605469 20.511719 17.8125 20.507812 18.097656 20.460938 C 18.15625 20.453125 18.199219 20.4375 18.246094 20.429688 L 18.953125 20.277344 C 18.992188 20.269531 19.042969 20.265625 19.089844 20.253906 C 19.457031 20.148438 19.84375 20.097656 20.214844 20.011719 C 20.207031 20.097656 20.195312 20.066406 20.148438 20.125 C 20.117188 20.167969 20.109375 20.195312 20.082031 20.238281 C 19.832031 20.648438 19.808594 21.148438 19.949219 21.605469 C 19.984375 21.710938 20.136719 21.957031 20.144531 22.023438 C 20.082031 22.039062 20.046875 22.0625 19.996094 22.089844 L 19.621094 22.359375 C 19.589844 22.394531 19.558594 22.445312 19.53125 22.484375 C 19.316406 22.804688 19.425781 23.082031 19.425781 23.296875 C 19.488281 23.253906 19.570312 22.988281 19.613281 22.90625 C 19.671875 22.796875 19.765625 22.664062 19.894531 22.632812 C 19.875 22.851562 19.726562 23.105469 19.84375 23.421875 C 19.863281 23.472656 19.867188 23.5 19.914062 23.53125 C 19.925781 23.484375 19.949219 23.429688 19.964844 23.386719 C 19.984375 23.332031 20 23.292969 20.023438 23.246094 C 20.070312 23.160156 20.097656 23.078125 20.140625 22.988281 C 20.199219 22.867188 20.339844 22.597656 20.472656 22.5625 C 20.472656 22.925781 20.589844 23.355469 20.921875 23.53125 C 20.914062 23.441406 20.863281 23.363281 20.851562 23.277344 C 20.816406 23.015625 20.835938 22.667969 20.9375 22.453125 C 21.082031 22.550781 21.242188 22.925781 21.371094 23.011719 C 21.410156 22.925781 21.398438 22.515625 21.375 22.410156 C 21.339844 22.21875 21.265625 22.074219 21.242188 21.878906 C 21.203125 21.515625 21.121094 21.578125 21.265625 21.417969 C 21.484375 21.179688 21.667969 20.886719 21.773438 20.578125 C 21.964844 20 21.976562 19.402344 21.628906 18.875 C 21.496094 18.675781 21.324219 18.34375 21.066406 18.308594 C 21.078125 18.25 21.078125 18.265625 21.121094 18.238281 L 22.230469 17.445312 C 22.46875 17.238281 22.71875 17.027344 22.921875 16.789062 L 23.195312 16.46875 C 23.347656 16.285156 23.492188 16.074219 23.597656 15.863281 C 23.738281 15.578125 23.867188 15.285156 23.9375 14.964844 C 23.996094 14.683594 24.023438 14.355469 23.988281 14.070312 C 23.96875 13.890625 23.851562 13.542969 23.847656 13.476562 C 23.921875 13.523438 23.960938 13.597656 24.023438 13.660156 C 24.34375 13.976562 24.671875 14.046875 25.125 13.941406 C 25.113281 14.019531 25.058594 14.042969 25.003906 14.109375 C 24.835938 14.304688 24.703125 14.527344 24.59375 14.761719 C 24.40625 15.164062 24.277344 15.578125 24.570312 15.96875 C 24.660156 16.085938 24.765625 16.175781 24.898438 16.230469 C 25.042969 16.292969 25.21875 16.316406 25.355469 16.242188 C 25.246094 16.078125 25.117188 16.03125 24.972656 15.671875 C 24.914062 15.527344 24.875 15.125 25.015625 15.019531 C 25.011719 15.144531 24.992188 15.117188 25.011719 15.253906 C 25.023438 15.34375 25.027344 15.394531 25.050781 15.46875 C 25.089844 15.589844 25.148438 15.710938 25.226562 15.8125 C 25.390625 16.03125 25.585938 16.140625 25.855469 16.207031 C 25.855469 16.0625 25.761719 15.84375 25.71875 15.714844 C 25.703125 15.664062 25.691406 15.636719 25.675781 15.59375 C 25.660156 15.554688 25.652344 15.507812 25.640625 15.46875 C 25.527344 15.074219 25.695312 14.863281 25.695312 14.734375 L 25.710938 14.734375 C 25.710938 15.140625 25.601562 15.621094 26.042969 15.839844 C 26.21875 15.929688 26.425781 15.984375 26.625 15.9375 C 26.621094 15.851562 26.582031 15.816406 26.546875 15.75 L 26.355469 15.363281 C 26.222656 15.039062 26.144531 14.695312 26.257812 14.351562 C 26.382812 13.984375 26.554688 13.949219 26.554688 13.40625 C 26.554688 12.871094 26.363281 12.359375 25.847656 12.15625 C 25.722656 12.105469 25.464844 12.058594 25.296875 12.058594 C 24.5625 12.058594 24.710938 12.164062 24.667969 11.824219 C 24.625 11.429688 24.441406 10.996094 24.078125 10.800781 L 24.203125 10.605469 C 24.339844 10.332031 24.265625 9.984375 24.222656 9.703125 C 24.144531 9.199219 23.933594 8.765625 23.65625 8.347656 C 23.605469 8.265625 23.554688 8.203125 23.5 8.128906 C 23.460938 8.078125 23.449219 8.066406 23.410156 8.019531 L 23.238281 7.816406 C 23.113281 7.65625 22.8125 7.390625 22.65625 7.25 L 22.40625 7.015625 C 22.375 6.992188 22.378906 7 22.351562 6.980469 C 22.304688 6.941406 22.304688 6.929688 22.246094 6.890625 L 21.929688 6.648438 C 21.886719 6.617188 21.859375 6.59375 21.820312 6.5625 C 21.78125 6.527344 21.757812 6.492188 21.710938 6.492188 C 21.667969 6.492188 21.542969 6.609375 21.53125 6.65625 C 21.460938 6.636719 21.484375 6.644531 21.460938 6.578125 C 21.445312 6.535156 21.441406 6.527344 21.421875 6.492188 C 21.402344 6.449219 21.402344 6.4375 21.382812 6.390625 C 21.3125 6.222656 21.117188 6.5 21.101562 6.5625 C 21.03125 6.511719 21 6.199219 20.828125 6.078125 C 20.78125 6.144531 20.605469 6.414062 20.523438 6.4375 C 20.511719 6.285156 20.402344 6.03125 20.308594 5.96875 C 20.257812 6.003906 20.226562 6.042969 20.179688 6.089844 L 20.054688 6.199219 C 20.050781 6.199219 20.046875 6.207031 20.046875 6.207031 L 19.988281 6.257812 C 19.914062 6.324219 19.871094 6.4375 19.859375 6.253906 C 19.84375 6.039062 19.65625 5.769531 19.429688 5.75 C 19.410156 5.835938 19.351562 6.097656 19.285156 6.148438 C 19.257812 6.042969 18.878906 5.726562 18.855469 5.625 L 18.820312 5.625 C 18.820312 5.695312 18.800781 5.777344 18.785156 5.824219 C 18.769531 5.886719 18.742188 5.929688 18.730469 5.984375 L 18.675781 5.984375 C 18.660156 5.921875 18.625 5.902344 18.582031 5.863281 Z M 18.585938 5.863281 " fill-opacity="1" fill-rule="evenodd"/></g></svg>