<svg xmlns="http://www.w3.org/2000/svg" viewBox="0 0 375 375">
 <defs>
  <clipPath id="lg_h">
   <path d="m0 0h375v375h-375z"/>
  </clipPath>
  <clipPath id="lg_e">
   <path d="m14.2 0h346c7.87 0 14.2 6.38 14.2 14.2v346c0 7.87-6.38 14.2-14.2 14.2h-346c-7.87 0-14.2-6.38-14.2-14.2v-346c0-7.87 6.38-14.2 14.2-14.2z"/>
  </clipPath>
  <clipPath id="lg_g">
   <path d="m0 0h375v375h-375z"/>
  </clipPath>
  <clipPath>
   <path d="m14.2 0h346c7.87 0 14.2 6.38 14.2 14.2v346c0 7.87-6.38 14.2-14.2 14.2h-346c-7.87 0-14.2-6.38-14.2-14.2v-346c0-7.87 6.38-14.2 14.2-14.2z"/>
  </clipPath>
  <clipPath id="lg_a">
   <rect width="375" height="375"/>
  </clipPath>
  <clipPath id="lg_c">
   <path d="m36.3 44.4h300v285h-300z"/>
  </clipPath>
  <clipPath id="lg_d">
   <path d="m15 0.363h285v284h-285z"/>
  </clipPath>
  <clipPath id="lg_b">
   <path d="m0.301 83h50.7v47h-50.7z"/>
  </clipPath>
  <clipPath id="lg_j">
   <rect width="301" height="286"/>
  </clipPath>
  <clipPath id="lg_i">
   <path d="m109 126h153v120h-153z"/>
  </clipPath>
  <clipPath id="lg_f">
   <rect width="375" height="375"/>
  </clipPath>
 </defs>
 <g>
  <g clip-path="url(#lg_f)">
   <g clip-path="url(#lg_h)">
    <g clip-path="url(#lg_e)">
     <g>
      <g clip-path="url(#lg_a)">
       <g clip-path="url(#lg_g)"/>
      </g>
     </g>
    </g>
   </g>
   <g clip-path="url(#lg_c)">
    <g transform="translate(36 44)">
     <g clip-path="url(#lg_j)">
      <g clip-path="url(#lg_d)">
       <path d="m19.5 158 1.28 9.21c0.496 3.7 1.24 7.36 2.22 11 0.57 2.12 0.914 4.5 1.78 6.94l2.57 7.63c4.74 12.9 11.2 24.9 19.4 36 5.35 7.14 11.3 13.7 17.9 19.7 6.61 5.99 13.7 11.3 21.4 15.9 9.06 5.49 18.6 9.91 28.7 13.3 10.1 3.35 20.4 5.54 30.9 6.57 2.77 0.152 5.65 0.32 8.49 0.473 1.39 0 2.77 0.219 4.37 0.18l4.27-0.18c2.84-0.125 5.72-0.238 8.6-0.363 2.89-0.125 5.84-0.789 8.8-1.18 5.96-0.609 11.7-2.33 17.6-3.75 1.48-0.352 2.93-0.816 4.34-1.39l4.3-1.54 4.33-1.54 2.16-0.789 2.1-0.984c2.77-1.32 5.55-2.64 8.32-3.97 1.45-0.637 2.83-1.38 4.16-2.22l4.04-2.4c5.55-3 10.4-7.02 15.6-10.7 2.47-1.98 4.77-4.16 7.19-6.31l3.58-3.21 3.2-3.54c2.17-2.39 4.44-4.69 6.51-7.18l5.98-7.74c7.4-10.6 14-22.2 18.2-34.7l1.73-4.63 1.29-4.79c0.82-3.19 1.76-6.38 2.48-9.6 0.941-6.55 2.44-13.1 2.52-19.7l0.293-4.98 0.137-2.48v-2.62l-0.414-9.71c-0.172-3.32-0.543-6.62-1.11-9.89l-0.793-4.93-0.375-2.5-3-12.1c-0.805-3.21-2.14-6.26-3.18-9.38l-1.67-4.66c-0.566-1.54-1.39-3-2.04-4.5l-4.16-8.91c-3.44-5.55-6.44-11.4-10.5-16.5l-2.97-3.86c-0.918-1.34-1.93-2.61-3.03-3.8l-6.46-7.3c-9.07-9.09-18.8-17.5-29.8-23.7l-4-2.47c-1.39-0.789-2.78-1.39-4.16-2.12l-8.32-4.09c-2.85-1.2-5.76-2.21-8.61-3.3l-4.29-1.57c-1.39-0.555-2.93-0.832-4.37-1.26-2.93-0.777-5.84-1.54-8.74-2.32-2.9-0.777-5.87-1.03-8.79-1.57l-4.37-0.691c-1.44-0.289-2.9-0.465-4.37-0.527-2.91-0.168-5.81-0.348-8.7-0.516-1.53-0.082-3.04-0.152-4.54-0.234-1.5-0.0859-2.77 0.0977-4.16 0.152-2.78 0.0938-5.5 0.184-8.18 0.277-2.83 0.352-5.64 0.699-8.45 1.04-1.39 0.168-2.77 0.348-4.16 0.516-1.39 0.164-2.68 0.566-4.01 0.844l-7.93 1.7c-2.58 0.723-5.11 1.54-7.63 2.3-4.94 1.53-9.78 3.33-14.5 5.4-8.45 3.74-16.5 8.24-24.1 13.5-7.59 5.27-14.6 11.2-21.1 17.8-10 10.3-18.4 21.7-25.1 34.4-4.18 8.21-7.62 16.7-10.3 25.5l-2.57 9.42 13.3 2.93 2.19-8.58c2.31-8.05 5.3-15.8 8.98-23.4 5.97-11.6 13.5-22.2 22.4-31.8 5.83-6.16 12.2-11.7 19.1-16.7 6.89-4.95 14.2-9.2 21.9-12.8 4.33-1.97 8.75-3.7 13.3-5.19 2.32-0.719 4.63-1.52 6.94-2.23 2.3-0.707 4.84-1.11 7.29-1.68 1.23-0.277 2.46-0.559 3.69-0.848 1.23-0.293 2.52-0.277 3.76-0.516 2.48-0.359 5-0.719 7.51-1.08 2.7-0.137 5.43-0.277 8.17-0.414 1.39 0 2.78-0.152 4.16-0.223l3.77 0.18c2.68 0.113 5.38 0.223 8.09 0.332 1.36 0.0352 2.71 0.176 4.05 0.418l4.08 0.598c2.77 0.457 5.55 0.637 8.19 1.39s5.43 1.39 8.16 2.03c1.39 0.371 2.77 0.594 4.16 1.09l4.01 1.39c2.68 0.988 5.41 1.86 8.07 2.93 2.66 1.07 5.22 2.47 7.86 3.7 1.3 0.641 2.66 1.2 3.93 1.92l3.77 2.25c10.3 5.63 19.6 13.4 28.3 21.8l6.19 6.69c1.05 1.11 2.02 2.28 2.9 3.53l2.77 3.66c3.95 4.72 6.83 10.2 10.2 15.4l4.16 8.33c0.668 1.39 1.39 2.77 2 4.16l1.65 4.37c1.03 2.95 2.35 5.8 3.15 8.83l2.41 9.09 0.609 2.28 0.375 2.29 0.75 4.59c0.609 3.09 1.02 6.21 1.22 9.35l0.57 9.71v1.51 0.125 0.582l-0.0977 2.38-0.195 4.73c0 6.36-1.32 12.5-2.11 18.8-0.621 3.09-1.48 6.13-2.22 9.21l-1.15 4.59-1.58 4.45c-3.8 12.1-9.99 23.2-16.9 33.5l-5.55 7.55c-1.96 2.41-4.16 4.66-6.15 6.94l-3.11 3.45-3.4 3.15c-2.29 2.07-4.47 4.25-6.83 6.2-4.93 3.66-9.6 7.64-14.9 10.6l-3.86 2.39c-1.26 0.84-2.57 1.58-3.94 2.22l-8.08 3.98-2.01 0.984-2.09 0.805-8.33 3.12c-1.35 0.578-2.73 1.04-4.16 1.39-5.69 1.39-11.3 3.25-17 3.9-2.77 0.43-5.62 1-8.46 1.3-2.84 0.305-5.76 0.332-8.6 0.5l-4.26 0.25c-1.25 0-2.78-0.0859-4.16-0.113-2.78-0.109-5.55-0.207-8.32-0.316-10.4-0.84-20.5-2.82-30.4-5.93-9.93-3.11-19.4-7.29-28.4-12.5-7.62-4.44-14.7-9.56-21.4-15.4s-12.6-12.2-18-19.2c-8.32-10.9-14.9-22.7-19.8-35.4l-2.66-7.56c-0.887-2.36-1.28-4.7-1.88-6.81-1.04-3.58-1.84-7.21-2.4-10.9z" fill="#fff"/>
      </g>
      <g clip-path="url(#lg_b)">
       <path d="m50.1 90.9-27.2 19.3-19.3-27.2-3.36 19.7 19.3 27.2 27.2-19.3z" fill="#fff"/>
      </g>
     </g>
    </g>
   </g>
   <g clip-path="url(#lg_i)">
    <path d="m141 215c0.0469-0.633 0.23-0.617 0.355-1.07 0.586 0.309 0.91 0.555 1.31 0.602v0.355l-1.67 0.125zm69.2-85.9c-0.738-0.711-1.82-1.34-2.95-1.34-0.398 0-0.23 1.57-0.23 2.02-0.602-0.402-2.86-2.92-4.88-3.21 0 0.711 0.0781 0.91 0.125 1.43-1.25-0.293-0.727-0.832-2.98-0.832l-0.23 0.492c-0.188 0.512-0.449 1.1-0.496 1.65-0.414-0.105-0.508-0.324-0.801-0.633-0.277-0.277-0.449-0.355-0.742-0.57-0.402-0.277-1.2-0.68-1.91-0.711-0.0312 0.34-0.246 1.68-0.355 1.9-0.648-0.168-1.71-1.14-3.24-1.53-1.51-0.371-0.926-0.539-0.926 2.95-0.523-0.125-0.895-0.324-1.42-0.492-1.48-0.496-3.02-0.695-4.79-0.695-0.523 0-0.695 0.105-0.277 0.508 0.539 0.527 1.04 1.28 1.11 2.12-0.527-0.0469-1.48-0.621-1.93-0.82-1.73-0.785-3.86-2.04-5.82-2.04 0.105 1.24 0.477 2.29 0.477 3.57-1.17-0.277-2.45-0.895-3.69-0.957 0.0312 0.34 0.312 1.65 0.156 1.81-0.141 0.137-0.371-0.141-0.602-0.277-1.11-0.727-2.36-1.28-3.95-1.28v2.14c-1.88-1.25-1.59-1.54-4.41-1.54 0 1.51 0.523 1.91 0.602 2.86-0.988-0.0781-2.21-0.957-4.65-0.957 0.0938 0.355 0.309 0.602 0.527 0.91 0.199 0.293 0.367 0.508 0.539 0.758-1.02 0-3.04-0.465-3.92-0.355-0.434 0.0469-0.586 0.105-1.2 0.105l0.832 2.27c-0.402-0.105-0.461-0.324-0.848-0.57-1.33-0.879-2.04-0.555-3.32-0.262 0 0.832 0.184 1.27 0.508 1.87l0.141 0.234c0.465 0.801-0.879 0.184-1.96 0.137-0.293-0.0156-0.648 0.0312-0.941 0-0.371-0.0312-0.355-0.109-0.848-0.109l0.137 1.31c0.109 0.48-0.293 0.219-0.492 0.125-1.21-0.555-3.11-0.695-4.17-0.125 0.043 0.512 0.23 1.18 0.398 1.62 0.109 0.266 0.203 0.449 0.293 0.664 0.188 0.418 0.219 0.234 0.25 0.695-0.664 0-0.773-0.105-1.31-0.121-0.527-0.0156-0.742 0.0273-1.25-0.0625-0.711-0.125-1.81-0.172-2.58-0.172 0.168 0.758 0.754 1.13 0.957 1.9-0.633 0-2.09-0.477-3.94-0.477 0.105 0.449 0.293 0.68 0.492 1.05 0.0781 0.137 0.0469 0.121 0.125 0.246l0.34 0.727c-0.957 0-1.67-0.25-2.58-0.402-0.941-0.156-1.75-0.188-2.8-0.188 0.219 0.82 1.3 1.59 1.44 3.11-1.67 0-2.79-0.895-3.81-0.957 0.309 0.633 0.402 1.62 0.586 2.29 0.371 1.31-2.09-0.773-3.8-0.867l0.602 1.55c-0.371-0.0938-0.309-0.109-0.57-0.266-0.559-0.309-1.21-0.43-1.84-0.539-1.4-0.23-1.16 0.277-1.05 1.19 0.0273 0.203 0.0117 0.48 0.0117 0.68-0.879-0.0156-1.46-0.555-2.38-0.602v2.02c-0.648 0.309-1.61 0.168-2.38 0.125-0.324-0.0156-1.34-0.402-1.23 0.152 0 0 0.199 0.512 0.246 0.602 0.48 1.39 0.633 1.22-0.477 2.05-0.402 0.293-0.48 0.402-0.82 0.727-0.324 0.324-0.414 0.492-0.711 0.832-0.324 0.371-0.523 0.48-0.57 0.988 0.34-0.152 0.711-0.23 1.07-0.355 1.09-0.402 2.29-0.617 3.35-0.941 1.43-0.449 3.09-0.617 4.6-0.988 0.324-0.0781 0.867-0.121 1.22-0.199l3.61-0.559c2.9-0.492 5.99-0.691 8.88-1.02 0.277-0.0312 0.801-0.0781 1.17-0.141 0.773-0.109 1.73-0.141 2.58-0.277l7.57-0.773c0.309-0.0312 0.895-0.184 1.2-0.215 2.95-0.309 5.75-0.742 8.62-1.27 3.05-0.555 6.1-1.38 9.03-2.18l6.7-1.76c2.22-0.617 4.54-1.11 6.82-1.53l4.85-0.758c0.449-0.0781 0.863-0.152 1.28-0.152 0.664 0 0.832-0.0781 1.31-0.109 2.3-0.172 4.97-0.246 7.26 0.0156 0.352 0.0469 0.23 0.0938 0.723 0.109 1.59 0.0586 3.04 0.336 4.6 0.633 3.01 0.586 5.74 1.9 7.7 4.21 1.82 2.16 3.17 4.68 1.89 7.53-0.203 0.434-0.0938 0.324-0.543 0.527l-2.32 1.02c-0.23 0.109-0.492 0.203-0.738 0.34-0.25 0.141-0.449 0.25-0.695 0.387-1.16 0.57-2.41 1.28-3.46 2.02-0.277 0.199-0.277 0.246-0.633 0.449-0.926 0.508-1.9 0.508-2.95 0.508-1.24 0-2.78-0.773-3.94-0.125-0.883 0.496-1.36 1.71-1.62 2.9l-0.355 1.92c-0.141 0.648-0.246 1.22-0.449 1.8-0.508 1.54-0.926 1.53-2.25 2.14-1.65 0.773-2.96 1.27-4.55 2.24-0.445 0.281-0.91 0.633-1.27 0.988-1.19 1.21-2.02 2.55-2.71 4.08-0.172 0.371-0.512 1.17-0.605 1.54 0.617-0.141 2.21-1.51 3.11-1.91 0.199-0.0938 0.402-0.156 0.602-0.23 0.262-0.125 0.262-0.156 0.602-0.234-0.293 0.434-0.68 0.711-1.05 1.1-0.617 0.633-1.96 3.27-2.18 4.14 0.68-0.152 1.36-0.586 2.01-0.848 0.957-0.371 2.05-0.773 2.93-1.36l2.21-1.96c-0.0625 0.727-1.22 2.67-1.59 3.54-0.277 0.664-0.758 1.38-0.91 2.07 0.816-0.0156 2.05-0.805 2.64-1.16 1.32-0.832 3.04-2.48 4-3.62 0.355-0.418 1.31-1.86 1.7-1.99 0 0.648-0.109 0.895-0.262 1.4-0.0781 0.25-0.141 0.309-0.25 0.59-0.816 1.88-1.94 3.52-3.33 5.02l-2.98 2.73c-1.59 1.2-2.79 1.37-4.71 1.84-3.03 0.758-2.29 0.773-4.4-0.0625-2.19-0.863-4.91 0.34-6.68 1.25l-1.41 0.742c-1.71 0.848-1.82 0.879-3.21 0.277-0.648-0.277-1.95-0.246-2.25-0.602-0.434-0.508-0.879-1.07-1.5-1.38-1-0.508-2.29-0.879-3.45-0.617 0.0156 0.602-0.0625 0.449 0.418 0.648 0.727 0.293 1.53 0.648 1.73 1.5-1.7-0.137-3.18-0.832-5.68 1.34-0.371 0.324-0.727 0.402-0.863 0.926 2.24 0 4.06-0.121 6.31-0.121-0.707 1.07-3.78 0.617-4.52 2.02 0.742 0 1.53 0.355 2.2 0.555 1 0.277 2.08 0.402 3.16 0.402 2.32 0 1.84-1.76 5.03 0.691 1.11 0.867 2.25 2.21 4.71 1.07 0.57-0.277 0.816-0.523 1.46-0.68-0.586 0.883-1.19 1.42-1.19 2.62-0.879 0.203-1.1 0.109-1.91 0.0156-1.07-0.121-3.29 0.262-4.17-0.121-1.76-0.773-3.15-0.449-4.96 0.152-0.773 0.262-1.13 0.633-1.88 0.371-1.22-0.434-2.41-0.355-3.72-0.586-1.54-0.262-4.51-0.156-6.44-0.586-2.95-0.68-3.55-3.11-7.78-2.33-1.95 0.355-2.86 1.91-4.03 2.99-1.36 1.25-2.25 1.05-3.94 1.31-2.47 0.387-5.28 0.387-7.72 0.867-1.89 0.371-4.2 0.785-6.13 0.785-3.06 0-6.21-0.723-8.99-1.85-1.59-0.648-1.65-1.1-3.35-0.586-2.78 0.816-2.27 1.79-2.59 3.6-0.324 1.8 0.508 1.67 0.754 2.67 0.25 0.945 0.371 2.02 1.08 2.5 0-0.852-0.0469-1.45 0.125-2.15l0.23 0.496c0.137 0.434 0.324 0.895 0.633 1.27 0.895 1.1 0.57 0.152 0.57-0.805l0.418 0.527c0.246 0.555 0.508 1.45 1.12 1.61l0.234-2.15c0.0469 0.574 0.523 1.71 0.957 2.02 0-0.711 0.23-1.43 0.23-2.14 0.758 0.0625 0.586 0.77 0.832 1.31 0.203 0.43 0.465 0.941 0.836 1.19 0-0.711 0.23-1.43 0.23-2.14 0.586 0.137 0.648 0.199 1.07 0.477 0 0.742 0.184 3 1.19 3.11-0.184-0.805 0-1.59 0-2.38 0.57 0.0469 0.512 0.0312 0.617 0.465 0.172 0.707 0.25 1.87 0.82 2.29l0.121-2.16 0.711 0.141c0.141 0.617 0.23 0.973 0.512 1.51 0.23 0.418 0.445 0.863 0.91 0.988 0-0.68-0.109-1.67 0.121-2.14 0.512 0.184 0.559 0.957 0.758 1.39 0.199 0.434 0.449 0.973 0.805 1.24 0.168-0.711 0.121-1.52 0.121-2.27h0.711c0.277 0.586 0.449 2.07 1.19 2.27l-0.121-2.02h0.355c0.184 0.785 0.324 1.57 0.785 2.19 0.172 0.23 0.324 0.246 0.633 0.309v-2.5c0.418 0.109 0.277 0.0156 0.418 0.418 0.0781 0.246 0.109 0.477 0.168 0.664 0.109 0.367 0.203 0.863 0.574 0.984 0.879 0.312-0.324-1.96 0.508-1.96 0.262 0 0.215 0.367 0.324 0.633 0.199 0.523 0.449 1.48 0.988 1.64-0.23-0.48-0.125-1.47-0.125-2.15 0.883-0.199 0.742 0.246 0.93 0.973 0.168 0.664 0.492 0.957 0.617 1.53 0.355-0.262 0.293-0.555 0.355-1.19 0.043-0.492 0.0742-0.957 0.246-1.31 0.863 0 0.664 1.95 1.54 2.27l0.125-2.14c0.555 0.0156 0.492-0.0469 0.648 0.414 0.199 0.59 0.445 1.21 0.848 1.65 0.172 0.203 0.0312 0.0938 0.293 0.188 0-0.449 0-1.71 0.215-1.95 0.125-0.141 0.324-0.0469 0.449 0.0625l1 1.99c0.0312-0.352 0.34-1.39 0.477-1.66 0.48 0.105 0.496 0.105 0.59 0.602 0.0898 0.43 0.152 0.57 0.246 0.957-0.465 0.215-0.973 0.23-1.67 0.23-0.125-0.449-0.355-0.555-0.477-1.07h-0.234c0 0.695-0.121 0.836-0.121 1.44-0.465 0-0.48 0.0312-0.836 0.125-0.215-0.324-0.402-0.527-0.617-0.93-0.293-0.57-0.0312-0.617-0.57-0.973 0.137 0.574 0.0938 0.648 0.125 1.31 0.0273 0.68 0.277 0.605-0.234 0.941-0.523-0.352-1.28-1.53-1.67-1.66 0 0.57 0.141 0.863 0.234 1.33 0.383 1.84-1.27-0.867-1.55-1.21 0 0.91 0.527 2.27-0.121 2.27-0.0938 0-0.648-0.754-0.773-0.91-0.23-0.309-0.477-0.773-0.785-0.879 0 2.08 0.383 2.38-0.711 2.38-0.219-0.414-0.434-0.676-0.633-1.16-0.156-0.371-0.402-0.91-0.434-1.3l-0.246-0.0469c-0.0156 0.539-0.125 0.633-0.125 1.31v1.31c-0.277-0.0938-0.23 0-0.398-0.434-0.25-0.633-0.203-1.23-0.203-1.88-0.293 0.125-0.0156-0.324-0.262 0.262-0.34 0.82-0.215 2.01-0.215 2.89-0.324 0.0312-0.324 0.0625-0.605 0.125-0.152-0.293-0.352-0.789-0.445-1.1-0.125-0.414-0.34-0.66-0.387-1.11-0.324 0.0625-0.152-0.277-0.34 0.449-0.215 0.785-0.262 1.32-0.262 2.24-0.355 0.0742-0.68 0.199-1.07 0.23-0.418-0.863-0.477-1.39-0.477-2.69-0.758 0.293-0.602 2.38-0.602 3.04-0.266 0.0625-0.281 0.121-0.605 0.121-0.602 0-0.957-2.31-1.31-2.73v1.9c0.0156 2.13-0.848 1.42-1.3 0.23-0.215-0.586-0.246-0.738-0.246-1.53-0.648 0.477-0.539 1.98-0.355 2.73h-0.355c-0.043-0.48-0.277-0.789-0.414-1.38-0.0938-0.402-0.188-1.13-0.188-1.54l-0.309 0.586c-0.215 0.895-0.277 1.37-0.277 2.33-1.04-0.695-1.07-1.79-1.67-2.69-0.0156 0.0156-0.0469 0.0469-0.0625 0.0469l-0.137 0.184c-0.0781 0.199-0.0312 0.215-0.0469 0.418-0.0781 0.633-0.125 0.926 0.0469 1.64 0.0938 0.371 0.152 0.34 0.184 0.754-1.08-0.293-0.879-2.25-1.31-2.86-0.137 0.57-0.262 0.852-0.371 1.53-0.043 0.309-0.121 0.414-0.0586 0.801 0.0469 0.246 0.168 0.648-0.172 0.648-1.17 0-1.46-2.76-1.67-3.1-0.121 0.602-0.355 1.03-0.355 1.79 0 0.695 0.496 1.54-0.121 1.54-0.309 0-0.602-1.39-0.602-1.79 0-0.617 0.121-0.555 0.121-1.13-0.309 0.109-0.461 0.512-0.602 0.898-0.445 1.19-0.109 1.16-0.0469 2.07 0.0312 0.387-0.184 0.277-0.184 0.789v0.832c0 1.84 2.02 3.91 3.8 4.08 3.6 0.324 4.45-2.38 10.9-0.219 2.8 0.926 3.64 1.04 6.48 1.04 2.56 0 5.13-0.91 7.64-1.3 2.19-0.34 5.19-1.2 7.35-0.109 0.387 0.188 0.492 0.25 0.832 0.48 0.297 0.199 0.48 0.324 0.773 0.539 2.22 1.71 5.4 1.42 8.06 1.1 2.39-0.277 1.51-0.773 2.8 0.199l2.16 1.28c2.41 0.867 5.11 1.39 7.67 1.39 5.62-0.0156 6.47 0.523 12.3-1.13 1.14-0.324 2.32-0.77 3.4-1.12l4.4-1.31c0.371-0.0781 0.664-0.141 0.973-0.215 0.555-0.141 1.39-0.277 1.91-0.355l8.55-0.512c1.98-0.152 3.35-0.184 5.25-0.477 0.387-0.0625 0.68-0.156 0.973-0.215l4.71-1c0.246-0.0625 0.602-0.0781 0.91-0.172 2.44-0.68 4.99-1.02 7.46-1.59-0.0469 0.57-0.125 0.355-0.434 0.758-0.215 0.277-0.262 0.445-0.445 0.738-1.67 2.72-1.81 6.04-0.883 9.08 0.219 0.695 1.25 2.32 1.28 2.77-0.398 0.0938-0.633 0.262-0.973 0.445l-2.48 1.79c-0.199 0.215-0.434 0.57-0.602 0.816-1.44 2.13-0.695 3.97-0.695 5.39 0.402-0.293 0.957-2.05 1.23-2.58 0.387-0.742 1-1.62 1.87-1.82-0.125 1.45-1.11 3.14-0.34 5.23 0.121 0.34 0.168 0.512 0.461 0.727 0.0781-0.309 0.23-0.68 0.34-0.973 0.125-0.34 0.246-0.602 0.402-0.91 0.293-0.586 0.477-1.13 0.773-1.73 0.383-0.785 1.31-2.59 2.19-2.82 0 2.41 0.785 5.27 2.98 6.44-0.0469-0.586-0.371-1.13-0.449-1.7-0.246-1.71-0.109-4.03 0.57-5.45 0.941 0.633 2.02 3.13 2.86 3.69 0.266-0.559 0.188-3.27 0.0469-3.98-0.246-1.27-0.742-2.24-0.879-3.52-0.277-2.41-0.82-2.01 0.152-3.06 1.44-1.59 2.67-3.52 3.35-5.57 1.27-3.83 1.36-7.81-0.957-11.3-0.879-1.33-2.02-3.52-3.73-3.77 0.0898-0.371 0.0898-0.277 0.367-0.465l7.37-5.26c1.59-1.36 3.23-2.75 4.59-4.36l1.82-2.11c1-1.21 1.96-2.62 2.66-4.02 0.941-1.9 1.8-3.83 2.25-5.96 0.398-1.87 0.57-4.04 0.355-5.94-0.141-1.18-0.914-3.49-0.941-3.94 0.477 0.324 0.738 0.805 1.16 1.22 2.13 2.12 4.31 2.58 7.3 1.88-0.0586 0.496-0.43 0.664-0.801 1.1-1.11 1.3-1.99 2.78-2.7 4.32-1.27 2.68-2.11 5.43-0.152 8.01 0.586 0.773 1.28 1.38 2.18 1.75 0.957 0.398 2.11 0.555 3.03 0.0586-0.727-1.08-1.57-1.39-2.55-3.77-0.387-0.957-0.648-3.64 0.277-4.32-0.0156 0.836-0.141 0.633-0.0156 1.56 0.0742 0.586 0.105 0.91 0.262 1.4 0.262 0.805 0.633 1.61 1.16 2.3 1.1 1.45 2.38 2.18 4.18 2.59 0-0.957-0.617-2.41-0.91-3.26-0.105-0.324-0.184-0.523-0.293-0.785-0.109-0.281-0.137-0.59-0.215-0.852-0.773-2.61 0.34-4 0.34-4.86h0.121c0 2.69-0.738 5.88 2.2 7.34 1.17 0.586 2.55 0.957 3.88 0.648-0.0469-0.574-0.293-0.805-0.543-1.25l-1.25-2.56c-0.879-2.14-1.42-4.43-0.648-6.71 0.82-2.42 1.96-2.66 1.96-6.27 0-3.55-1.28-6.93-4.69-8.29-0.82-0.324-2.55-0.648-3.64-0.648-4.88 0-3.91 0.695-4.17-1.54-0.309-2.62-1.52-5.51-3.92-6.79l0.832-1.31c0.895-1.79 0.418-4.11 0.125-5.98-0.527-3.35-1.91-6.2-3.75-9-0.352-0.539-0.676-0.941-1.05-1.45-0.25-0.324-0.324-0.418-0.586-0.711l-1.14-1.36c-0.816-1.05-2.82-2.82-3.86-3.75l-1.67-1.55c-0.199-0.168-0.168-0.105-0.355-0.246-0.324-0.246-0.324-0.34-0.711-0.586l-2.08-1.61c-0.293-0.215-0.465-0.371-0.727-0.586-0.262-0.219-0.434-0.449-0.742-0.449-0.277 0-1.11 0.773-1.19 1.07-0.449-0.125-0.309-0.0625-0.465-0.496-0.105-0.293-0.121-0.34-0.246-0.586-0.137-0.277-0.137-0.355-0.277-0.68-0.449-1.09-1.76 0.742-1.87 1.14-0.465-0.34-0.664-2.41-1.79-3.21-0.309 0.445-1.48 2.24-2.02 2.38-0.0781-1-0.805-2.67-1.44-3.1-0.34 0.23-0.555 0.492-0.863 0.801l-0.82 0.727-0.0625 0.0625-0.367 0.34c-0.496 0.434-0.789 1.17-0.867-0.0312-0.105-1.42-1.34-3.21-2.86-3.34-0.121 0.559-0.508 2.3-0.957 2.62-0.184-0.68-2.69-2.79-2.86-3.46h-0.23c0 0.461-0.125 1-0.219 1.33-0.121 0.402-0.293 0.68-0.371 1.05h-0.352c-0.109-0.402-0.355-0.543-0.621-0.805z" fill="#fff" fill-rule="evenodd"/>
   </g>
  </g>
 </g>
</svg>